<svg width="24" height="19" viewBox="0 0 24 19" fill="none" xmlns="http://www.w3.org/2000/svg">
    <path
        d="M21.5413 1.76471L7.26942 15.795L2.45571 11.0424C2.29977 10.8873 2.08605 10.798 1.86155 10.7942C1.63706 10.7904 1.42018 10.8724 1.25863 11.0221C1.09708 11.1719 1.0041 11.3771 1.00013 11.5927C0.996166 11.8083 1.08154 12.0165 1.23748 12.1717L6.66876 17.5254C6.74712 17.6022 6.84055 17.6633 6.94366 17.7051C7.04676 17.7469 7.15749 17.7687 7.26942 17.7692C7.38278 17.7698 7.49511 17.7486 7.59974 17.7067C7.70438 17.6648 7.79919 17.6032 7.87854 17.5254L22.7596 2.90208C22.8373 2.82526 22.8986 2.73449 22.9398 2.63494C22.9811 2.5354 23.0015 2.42903 22.9999 2.3219C22.9983 2.21478 22.9748 2.109 22.9307 2.01061C22.8865 1.91222 22.8226 1.82314 22.7427 1.74846C22.6627 1.67378 22.5681 1.61496 22.4645 1.57536C22.3608 1.53576 22.25 1.51615 22.1385 1.51766C22.0269 1.51917 21.9168 1.54176 21.8143 1.58415C21.7119 1.62654 21.6191 1.68789 21.5413 1.76471Z"
        fill="currentColor" stroke="currentColor" stroke-width="1.5" />
</svg>