<svg xmlns="http://www.w3.org/2000/svg" fill="currentColor" viewBox="0 0 95.2 88">
    <path
        d="M81.15 1.5c-.29-.29-.71-.46-1.14-.46H30.87c-.89 0-1.61.71-1.61 1.61v27.29h3.21V4.25h42.71L53.54 17.71c-.46.29-.75.82-.75 1.36v48.21H32.5v-26h-3.21v27.61c0 .43.18.82.46 1.14.29.29.71.46 1.14.46h21.89v14.82c0 .57.32 1.14.82 1.43.25.14.5.21.79.21s.61-.07.86-.25l25.64-16.43c.46-.29.75-.79.75-1.36V2.68c-.04-.46-.21-.86-.5-1.18ZM78.4 68.07 55.97 82.43V19.96L78.4 6.03v62.04Z" />
    <path
        d="M36.12 43.96c-.64.64-.64 1.64 0 2.29.32.32.71.46 1.11.46s.82-.14 1.14-.46l9.25-9.29c.64-.64.64-1.64 0-2.29l-9.25-9.36c-.64-.64-1.64-.64-2.25 0-.64.64-.64 1.64 0 2.29l6.5 6.57h-27.5c-.86 0-1.57.75-1.57 1.64s.71 1.61 1.61 1.61h27.5l-6.54 6.54ZM62.05 51.57c.89 0 1.61-.71 1.61-1.61v-7.32c0-.89-.71-1.61-1.61-1.61s-1.61.71-1.61 1.61v7.32c0 .89.71 1.61 1.61 1.61Z" />
</svg>