<svg xmlns="http://www.w3.org/2000/svg" fill="currentColor" viewBox="0 0 95.2 88">
    <path
        d="m33.81 29.56-2.1 2.2v3.8c.8 1.7 1.8 3.9 3 6.2v-11.5l-.9-.7Zm43.5-6.5h-39.4c.1.8-.1 1.9-.9 3h40.3c.3 0 .6.2.8.4.6-.4 1.5-.3 2 .3s.4 1.6-.2 2.1l-1.6 1.2v25.3l1.8 2.1-2.3 1.9-2-2.4h-31.8c1.1 1.5 1.9 2.6 2.2 3h.7l7.8-1.9c3.2-.7 4.9 1.7 4.9 1.7l.2.2h17.6c2.2 0 4-1.8 4-4v-29c-.1-2.1-1.8-3.9-4.1-3.9Z" />
    <path
        d="m65.51 44.76 10.3 12.3 2 2.4 2.3-2-1.8-2.1-10.5-12.5-2.3 1.9zm-24.8 7.4 6.1-7.4-2.2-1.9-5.5 6.7c.5.8 1.1 1.8 1.6 2.6Zm39.5-25.4c-.5-.6-1.4-.7-2-.3 0 0-.1 0-.1.1l-21.5 17-20.8-16.2-2.1 2.2.9.7 21 16.3c.3.2.6.3.9.3s.7-.1.9-.3l20.8-16.5 1.6-1.2c.8-.5.9-1.4.4-2.1Z" />
    <path
        d="M57.21 84.56c-1.4 0-2.3-.4-2.6-.6-9.7-4.2-19.1-14-27.9-29.3-.3-.5-.5-.9-.6-1.1l-.3-.5c-5.1-8.5-13.5-25-11.8-39.4 0-.8.5-4 5-6.2 2.5-1.3 8.6-4.3 11.1-4 1 .1 2.9.9 3.9 3.4l4.8 14.1c.7 1.3 1.2 4.2-1.3 6.7l-5.3 5.5c1.1 2.4 4.1 8.9 6.6 12.9 0 0 0 .1.1.1 2.3 4.4 6.4 10.1 7.9 12.2l7.4-1.8c3.8-.9 6 1.6 6.4 2.2l9.8 11.1c1.7 2.2 1.5 4.2 1.1 5.1-.9 2.5-6.6 6.2-9.1 7.8-2 1.4-3.8 1.8-5.2 1.8Zm-27.6-78.2c-1.2 0-5.3 1.6-9.2 3.7-3.3 1.6-3.4 3.5-3.4 3.6v.2c-1.7 14 7.4 31 11.4 37.7l.3.4c.1.2.3.6.7 1.1 8.5 14.7 17.4 24.1 26.5 28 .1 0 .1.1.2.1 0 0 1.8.9 4.7-1.1 3.9-2.4 7.6-5.3 7.9-6.2 0-.1.1-.2.1-.3 0 0 .3-.8-.7-2l-9.7-10.7-.1-.1c-.1-.2-1.2-1.6-3.4-1.1l-8.4 2c-.6.1-1.2-.1-1.6-.6-.2-.3-5.7-7.7-8.7-13.3-3.3-5.2-7-13.8-7.2-14.2-.2-.6-.1-1.2.3-1.6l6-6.3c1.6-1.7.9-3.2.8-3.3 0-.1-.1-.2-.1-.2l-4.7-14.2c-.5-1.3-1.4-1.5-1.5-1.5h-.1c0-.1-.1-.1-.1-.1Z" />
</svg>