<svg xmlns="http://www.w3.org/2000/svg" fill="currentColor" viewBox="0 0 95.2 88"><path d="M32.93 75.02c-11.3 0-21.6-7.6-24.7-19-3.6-13.6 4.5-27.6 18.1-31.2 13.6-3.6 27.6 4.5 31.3 18.1 1.8 6.6.9 13.5-2.6 19.4-3.4 5.8-8.9 10-15.5 11.8-2.2.6-4.4.9-6.6.9Zm0-48.1c-1.9 0-3.9.2-5.8.8-12 3.2-19.2 15.6-15.9 27.6 3.2 12 15.6 19.2 27.6 15.9 5.8-1.6 10.7-5.3 13.7-10.5s3.8-11.3 2.3-17.1c-2.8-10.1-12-16.7-21.9-16.7Z"/><path d="M26.73 27.52c-.1 0-.3 0-.4-.1l-14.6-9.8c-.3-.2-.4-.5-.3-.8l1.6-5.7c.1-.3.3-.5.5-.5l16.5-4.4c.3-.1.5 0 .7.2l4.2 4.1c.2.2.3.6.2.9l-7.7 15.8c-.1.2-.3.3-.5.4-.1-.1-.2-.1-.2-.1Zm-13.8-10.9 13.4 9 7.2-14.5-3.5-3.4-15.7 4.2-1.4 4.7Z"/><path d="M12.33 17.62c-.3 0-.6-.2-.7-.6-.1-.4.1-.8.5-.9l21.9-5.9c.4-.1.8.1.9.5.1.4-.1.8-.5.9l-21.9 5.9c0 .1-.1.1-.2.1Z"/><path d="M26.63 27.32c-.2 0-.5-.1-.6-.3l-8.3-11.3c-.2-.3-.2-.8.2-1 .3-.2.8-.2 1 .2l8.3 11.2c.2.3.2.8-.2 1-.1.1-.3.2-.4.2Z"/><path d="M18.33 16.02c-.2 0-.3-.1-.5-.2l-4.6-3.9c-.3-.3-.4-.7-.1-1.1.3-.3.7-.4 1.1-.1l4.6 3.9c.3.3.4.7.1 1.1-.1.2-.4.3-.6.3Z"/><path d="M18.43 15.92c-.1 0-.2 0-.4-.1-.4-.2-.5-.7-.3-1l3.2-5.9c.2-.4.7-.5 1-.3.4.2.5.7.3 1l-3.2 5.9c-.1.2-.3.4-.6.4ZM26.63 27.32c-.5 0-.8-.4-.7-.8l1.5-13.9c0-.4.4-.7.8-.7s.7.4.7.8l-1.5 13.9c-.1.4-.4.7-.8.7Z"/><path d="M28.23 13.32h-.3c-.4-.1-.6-.6-.5-1l2-5.6c.1-.4.6-.6 1-.5.4.1.6.6.5 1l-2 5.6c-.1.3-.4.5-.7.5Z"/><path d="M28.03 13.32c-.1 0-.3 0-.4-.1l-5.8-3.5c-.4-.2-.5-.7-.3-1 .2-.4.7-.5 1-.3l5.8 3.5c.4.2.5.7.3 1-.1.3-.3.4-.6.4ZM62.33 81.82c-14.1 0-25.5-11.5-25.5-25.5s11.5-25.5 25.5-25.5 25.5 11.5 25.5 25.5-11.4 25.5-25.5 25.5Zm0-48.1c-12.4 0-22.5 10.1-22.5 22.5s10.1 22.5 22.5 22.5 22.5-10.1 22.5-22.5-10.1-22.5-22.5-22.5Z"/></svg>