<svg xmlns="http://www.w3.org/2000/svg" viewBox="0 0 88.25 88.11" fill="currentColor">
    <path
        d="M62.73 20.31c-1.72 0-3.33-.67-4.56-1.88a6.442 6.442 0 0 1-1.92-4.57c-.01-3.57 2.88-6.49 6.45-6.51h.03c3.56 0 6.46 2.89 6.48 6.45.02 3.57-2.88 6.49-6.45 6.51h-.03Zm-3.56-6.46c0 .95.38 1.84 1.05 2.51a3.51 3.51 0 0 0 2.5 1.03h.02c1.96 0 3.55-1.61 3.54-3.57 0-1.95-1.6-3.54-3.55-3.54h-.02c-1.96 0-3.55 1.61-3.54 3.57ZM57.73 27.52c-.19 0-.38-.04-.56-.11a1.463 1.463 0 0 1-.78-1.91l1.09-2.61c.31-.74 1.17-1.1 1.91-.78.74.31 1.09 1.17.78 1.91l-1.09 2.61c-.24.56-.78.9-1.35.9ZM66.67 5.64c-.19 0-.38-.04-.56-.11a1.463 1.463 0 0 1-.78-1.91l1.09-2.61c.31-.74 1.16-1.1 1.91-.78.74.31 1.09 1.17.78 1.91l-1.09 2.61c-.23.56-.78.9-1.35.9ZM50.54 20.38c-.58 0-1.12-.34-1.35-.91-.31-.75.05-1.6.8-1.91l2.62-1.07a1.464 1.464 0 1 1 1.11 2.71l-2.62 1.07c-.18.07-.37.11-.55.11ZM72.34 11.24c-.58 0-1.12-.34-1.35-.91-.31-.75.05-1.6.8-1.91l2.62-1.07c.75-.31 1.6.05 1.91.8.31.75-.05 1.6-.8 1.91l-2.62 1.07c-.18.07-.37.11-.55.11ZM53.12 11.35c-.19 0-.38-.04-.56-.11l-2.61-1.09a1.463 1.463 0 0 1-.78-1.91c.31-.74 1.17-1.1 1.91-.78l2.61 1.09a1.463 1.463 0 0 1-.57 2.81ZM75 20.29c-.19 0-.38-.04-.56-.11l-2.61-1.09a1.463 1.463 0 0 1-.78-1.91c.31-.74 1.16-1.1 1.91-.78l2.61 1.09A1.463 1.463 0 0 1 75 20.3ZM67.86 27.48c-.58 0-1.12-.34-1.35-.91l-1.07-2.62c-.31-.75.05-1.6.8-1.91.75-.31 1.6.05 1.91.8l1.07 2.62a1.46 1.46 0 0 1-1.35 2.02ZM58.72 5.69c-.58 0-1.12-.34-1.35-.91L56.3 2.16a1.464 1.464 0 1 1 2.71-1.11l1.07 2.62a1.46 1.46 0 0 1-1.35 2.02ZM64.89 69.4c-2.91 0-5.76-.91-8.13-2.58a14.147 14.147 0 0 1-8.13 2.58c-1.78 0-3.52-.33-5.16-.98l1.07-2.72c1.3.51 2.68.77 4.09.77 2.63 0 5.18-.93 7.19-2.62l.94-.79.94.79c2.01 1.69 4.57 2.62 7.19 2.62 6.17 0 11.19-5.02 11.19-11.19 0-4.64-2.8-8.73-7.14-10.42l-.75-.29-.16-.79c-1.15-5.79-5.89-10-11.28-10-2.42 0-4.74.82-6.7 2.36l-1.81-2.3c2.48-1.96 5.43-2.99 8.51-2.99 6.53 0 12.3 4.82 13.98 11.58C75.78 44.72 79 49.68 79 55.27c0 7.79-6.33 14.12-14.12 14.12Z" />
    <path
        d="M56.74 81.26c-.81 0-1.46-.65-1.46-1.46V48c0-.81.65-1.46 1.46-1.46s1.46.65 1.46 1.46v31.8c0 .81-.65 1.46-1.46 1.46Z" />
    <path
        d="M56.1 61.59c-.27 0-.55-.08-.79-.24l-5.93-3.85c-.68-.44-.87-1.35-.43-2.02.44-.68 1.34-.87 2.02-.43l5.93 3.85c.68.44.87 1.35.43 2.02-.28.43-.75.67-1.23.67ZM56.73 56.94c-.58 0-1.13-.35-1.36-.91-.3-.75.06-1.6.81-1.9l6.57-2.65c.75-.3 1.6.06 1.9.81.3.75-.06 1.6-.81 1.9l-6.57 2.65c-.18.07-.36.11-.55.11ZM28.75 67.94h-.5c-5.83-.13-11.39-2.72-14.89-6.92-3.51-4.22-4.82-9.77-3.81-16.07.82-5.04 2.81-12.75 5.96-19.27 3.78-7.82 8.11-11.79 12.86-11.79 10.48 0 16.65 19.39 18.64 30.85 1.52 8.75-1.15 14.07-3.66 16.99-3.36 3.91-8.8 6.21-14.61 6.21Zm-.37-51.13c-7.72 0-14.07 17.07-15.93 28.6-.88 5.44.22 10.19 3.17 13.74 2.96 3.56 7.71 5.75 12.71 5.86 5.13.09 9.93-1.82 12.82-5.19 3.01-3.5 4.05-8.55 3-14.58-1.99-11.43-7.83-28.43-15.76-28.43Z" />
    <path
        d="M28.05 57.88c-.33 0-.66-.11-.93-.33l-10.35-8.53a1.47 1.47 0 0 1-.2-2.06 1.47 1.47 0 0 1 2.06-.2l10.35 8.53c.62.51.71 1.44.2 2.06-.29.35-.71.53-1.13.53ZM27.88 45.75c-.33 0-.66-.11-.93-.33l-6.24-5.16a1.47 1.47 0 0 1-.2-2.06 1.47 1.47 0 0 1 2.06-.2l6.24 5.16c.62.51.71 1.44.2 2.06-.29.35-.71.53-1.13.53Z" />
    <path
        d="M28.61 57.88c-.42 0-.84-.18-1.13-.53-.51-.62-.42-1.54.2-2.06l10.35-8.53c.62-.51 1.54-.42 2.06.2.51.62.42 1.54-.2 2.06l-10.35 8.53c-.27.22-.6.33-.93.33ZM28.79 45.75a1.462 1.462 0 0 1-.93-2.59L34.1 38a1.462 1.462 0 1 1 1.86 2.26l-6.24 5.16c-.27.23-.6.33-.93.33Z" />
    <path
        d="M28.35 81.84c-.81 0-1.46-.65-1.46-1.46V33.07c0-.81.65-1.46 1.46-1.46.81 0 1.46.65 1.46 1.46v47.31c0 .81-.65 1.46-1.46 1.46Z" />
    <path
        d="m15.28 88.11-1.81-2.3c6.54-5.15 17.93-8.22 30.46-8.22s23.85 3.06 30.4 8.17l-1.8 2.3c-5.96-4.66-16.92-7.55-28.6-7.55s-22.7 2.91-28.65 7.59Z" />
</svg>