<svg xmlns="http://www.w3.org/2000/svg" fill="currentColor" viewBox="0 0 95.2 88"><path d="M62.6 52h-28v-3h28v3ZM62.6 44h-28v-3h28v3ZM62.6 68h-28v-3h28v3ZM62.6 60h-28v-3h28v3Z"/><path d="M33.68 6h36.49c3.55 0 6.42 2.86 6.42 6.39v63.23c0 3.52-2.88 6.39-6.42 6.39H25.02c-3.55 0-6.42-2.86-6.42-6.39v-56.6L33.69 6Zm.99 2.62L21.24 20.21v55.4c0 2.07 1.7 3.76 3.78 3.76h45.15c2.09 0 3.78-1.69 3.78-3.76V12.39c0-2.07-1.7-3.76-3.78-3.76h-35.5Z"/><path d="M37.94 22.37V8h2.66v17h-11v-2.63h8.34ZM43.6 33.73v-2.28h.64c.6 0 .91-.31.91-.91v-2.09H43.6v-1.82h1.55v-2c0-2.28 1.55-3.82 4.1-3.82s4.19 1.64 4.19 3.92h-2.37c0-.93-.73-1.64-1.82-1.64s-1.73.62-1.73 1.64v1.91h3.44v1.82h-3.44v2.09c0 .36-.15.6-.27.73-.09.09-.18.15-.27.18h6.83v2.28h-10.2Z"/></svg>