<svg xmlns="http://www.w3.org/2000/svg" viewBox="0 0 88.25 88" fill="currentColor">
    <path
        d="M4.9 60.46c-2.41-1.41-7.49-5.69-3.28-15.21v-8.39c.01-.1.02-.21.04-.31.09-.49 2.36-12.13 19.43-16.12.64-.19 17.97-5.09 32.11-.68.32.1.6.28.82.53l10.44 12c1.45.5 6.01 2.14 10.72 4.45 7.96 3.91 12.08 7.6 12.58 11.28.21.94 1.29 6.93-3.28 10.86-.1.09-1.14.97-2.76 1.29l-.7-3.51c.68-.13 1.13-.5 1.13-.5 3.16-2.72 2.14-7.21 2.1-7.4-.02-.07-.03-.14-.04-.21-.5-4.25-12.79-10.17-21.36-13.01-.3-.1-.58-.28-.79-.52L51.65 23.04c-13.03-3.83-29.49.82-29.66.87C8.02 27.18 5.5 35.83 5.21 37.08v8.58c-.01.26-.07.51-.17.75-3 6.51-.75 9.57 1.67 10.98L4.9 60.48Z" />
    <path
        d="M27.47 58.22h32.89v3.58H27.47zM66.87 37.1H15.01c-.99 0-1.79-.8-1.79-1.79s.8-1.79 1.79-1.79h51.87c.99 0 1.79.8 1.79 1.79s-.8 1.79-1.79 1.79Z" />
    <path
        d="M32.68 20.23h3.58v14.79h-3.58zM67.55 68.32c-5.09 0-9.22-4.14-9.22-9.22s4.14-9.23 9.22-9.23 9.23 4.14 9.23 9.23-4.14 9.22-9.23 9.22Zm0-14.87c-3.11 0-5.64 2.53-5.64 5.65s2.53 5.64 5.64 5.64 5.65-2.53 5.65-5.64-2.53-5.65-5.65-5.65ZM19.82 68.32c-5.09 0-9.22-4.14-9.22-9.22s4.14-9.23 9.22-9.23 9.23 4.14 9.23 9.23-4.14 9.22-9.23 9.22Zm0-14.87c-3.11 0-5.65 2.53-5.65 5.65s2.53 5.64 5.65 5.64 5.65-2.53 5.65-5.64-2.53-5.65-5.65-5.65Z" />
</svg>