<svg xmlns="http://www.w3.org/2000/svg" fill="currentColor" viewBox="0 0 95.2 88"><path d="M37.9 42.8h19.5v3H37.9zm0 7.9h19.5v3H37.9z"/><path d="M60.2 64.7H35c-2.3 0-4.3-2-4.3-4.4V28.7l9-7.5h20.6c2.4 0 4.3 1.9 4.3 4.4v34.7c-.1 2.4-2 4.4-4.4 4.4ZM33.7 30.1v30.2c0 .7.7 1.4 1.3 1.4h25.2c.6 0 1.3-.5 1.3-1.4V25.5c0-.7-.5-1.4-1.3-1.4H40.7l-7 6Z"/><path d="M44.2 33.5h-6.8v-3h3.8v-7.1h3v10.1z"/><path d="M47.9 80.8c-14.3 0-27.3-8.4-33.2-21.6l2.7-1.2c5.5 12.1 17.4 19.9 30.5 19.9 18.4 0 33.3-15.1 33.3-33.7 0-1 0-1.9-.1-2.8l3-.5c.2 1.1.2 2.2.2 3.3-.1 20.2-16.4 36.6-36.4 36.6ZM11.5 47.7c-.2-1.3-.2-2.5-.2-3.8 0-20.3 16.3-36.7 36.3-36.7 14.5 0 27.6 8.7 33.4 22.2l-2.8 1.2C73 18.2 61 10.2 47.7 10.2c-18.4 0-33.3 15.1-33.3 33.7 0 1.2 0 2.3.2 3.3l-3.1.5Z"/><path d="M91 50.3c-.4 0-.8-.2-1.1-.5l-8.7-9.4c-.6-.6-.5-1.6.1-2.1.6-.6 1.6-.5 2.1.1l8.7 9.4c.6.6.5 1.6-.1 2.1-.2.3-.6.4-1 .4Z"/><path d="M73.7 50.3c-.4 0-.7-.1-1-.4-.6-.6-.7-1.5-.1-2.1l8.7-9.4c.6-.6 1.5-.7 2.1-.1s.7 1.5.1 2.1l-8.7 9.4c-.3.4-.7.5-1.1.5Zm-60.8 0c-.4 0-.8-.2-1.1-.5l-8.7-9.4c-.6-.6-.5-1.6.1-2.1.6-.6 1.6-.5 2.1.1l8.7 9.4c.6.6.5 1.6-.1 2.1-.3.3-.7.4-1 .4Z"/><path d="M12.9 50.3c-.4 0-.7-.1-1-.4-.6-.6-.7-1.5-.1-2.1l8.7-9.4c.6-.6 1.5-.7 2.1-.1s.7 1.5.1 2.1L14 49.8c-.3.4-.7.5-1.1.5Z"/></svg>