<svg xmlns="http://www.w3.org/2000/svg" viewBox="0 0 88.25 88" fill="currentColor">
    <path
        d="M54.39 22.14c-1.43 0-2.6-1.17-2.6-2.6s1.17-2.6 2.6-2.6 2.6 1.17 2.6 2.6-1.17 2.6-2.6 2.6Zm0-3.25c-.35 0-.64.29-.64.65s.29.64.64.64.64-.29.64-.64-.29-.65-.64-.65Z" />
    <path d="M76.34 74.87H48.03v-3.25h25.06V3.25H35.7v54.62h-3.25V0h43.89v74.87z" />
    <path
        d="M63.65 67.35H52.92V64.1h7.68c.6-2.42 2.51-4.33 4.93-4.93V15.7a6.778 6.778 0 0 1-4.93-4.93H48.19a6.778 6.778 0 0 1-4.93 4.93v34.42h-3.25V12.65h1.62c1.94 0 3.51-1.57 3.51-3.51V7.52h18.51v1.62c0 1.93 1.57 3.51 3.51 3.51h1.62v49.57h-1.62c-1.93 0-3.51 1.57-3.51 3.51v1.62Z" />
    <path
        d="M54.39 45.35c-4.63 0-8.4-3.55-8.4-7.92s3.77-7.91 8.4-7.91 8.39 3.55 8.39 7.91-3.77 7.92-8.39 7.92Zm0-12.59c-2.84 0-5.15 2.09-5.15 4.67s2.31 4.67 5.15 4.67 5.15-2.1 5.15-4.67-2.31-4.67-5.15-4.67ZM33.01 88l-2.69-1.82 18.94-28.09c1.61-2.38 1.51-5.63-.2-7.11-1.68-1.45-4.76-.96-6.72 1.07L27.28 68.21 24.91 66l15.08-16.18c3.19-3.3 8.2-3.87 11.19-1.29 2.95 2.54 3.3 7.65.78 11.39L33.02 88.01ZM12.63 87.09c-.7-18.97-.89-27.75-.61-29.35.45-2.62 11.42-12.42 20.53-20.17l2.1 2.47c-8.91 7.58-18.56 16.45-19.45 18.33-.2 1.58.02 11.2.67 28.6l-3.24.12Zm2.55-28.67Z" />
</svg>