<svg xmlns="http://www.w3.org/2000/svg" viewBox="0 0 88.25 88.11" fill="currentColor">
    <path
        d="M71.06 73.31h-8.75c-.97 0-1.75-.78-1.75-1.75s.78-1.75 1.75-1.75h8.75c.97 0 1.75.78 1.75 1.75s-.78 1.75-1.75 1.75ZM34.04 88.11l-3.9-33.54-9.57 1.25c-.38.07-11.15 2.11-11.15 13.34v18.75h-3.5V69.16c0-14.21 13.98-16.78 14.12-16.8l11.4-1.49c.47-.06.93.07 1.3.36s.61.71.66 1.18l4.11 35.31-3.48.4Z" />
    <path
        d="m54.2 88.11-3.48-.4 4.1-35.31a1.75 1.75 0 0 1 1.96-1.54l11.33 1.48c.21.03 14.19 2.6 14.19 16.81V87.9h-3.5V69.15c0-11.3-10.76-13.27-11.21-13.35l-9.5-1.24-3.9 33.54ZM44.12 88.08c-.97 0-1.75-.78-1.75-1.75V56.07c0-.97.78-1.75 1.75-1.75s1.75.78 1.75 1.75v30.26c0 .97-.78 1.75-1.75 1.75ZM44.26 48.29c-8.62 0-16.94-10.96-18.18-23.92-.69-7.26-.74-14.62 3.52-19.31C32.63 1.72 37.43.1 44.26.1s11.63 1.62 14.66 4.95c4.26 4.68 4.21 12.04 3.52 19.31-1.23 12.97-9.56 23.92-18.18 23.92Zm0-44.69c-5.79 0-9.74 1.25-12.07 3.81-3.34 3.68-3.24 10.16-2.62 16.62 1.16 12.23 8.68 20.75 14.69 20.75s13.53-8.52 14.69-20.75c.61-6.46.72-12.95-2.62-16.62C54 4.85 50.05 3.6 44.26 3.6Z" />
    <path d="m36.82 21.84-.22-3.49c9.75-.61 11.7-6.38 11.78-6.63l3.35 1c-.1.34-2.6 8.35-14.91 9.12Z" />
    <path d="M60.08 22.61c-7.29-1.9-12.44-5.69-12.66-5.85l2.09-2.81s4.85 3.55 11.45 5.27l-.88 3.39Z" />
</svg>