<svg xmlns="http://www.w3.org/2000/svg" fill="currentColor" viewBox="0 0 95.2 88">&gt;<path d="M89.5 74.05H5.7c-3.1 0-5.7-2.4-5.7-5.3v-49.5c0-2.9 2.6-5.3 5.7-5.3h83.8c3.1 0 5.7 2.4 5.7 5.3v49.5c0 2.9-2.6 5.3-5.7 5.3ZM5.7 16.95c-1.3 0-2.7.9-2.7 2.3v49.5c0 1.1 1.1 2.3 2.7 2.3h83.8c1.3 0 2.7-.9 2.7-2.3v-49.5c0-1.1-1.1-2.3-2.7-2.3H5.7Z"/><path d="M53 37.35h29v3H53zm0-9.7h29v3H53zm0 29.1h29v3H53zm0-9.8h29v3H53zM29.6 42.05c-4.8 0-8.5-3.7-8.5-8.5s3.7-8.5 8.5-8.5 8.5 3.7 8.5 8.5-3.7 8.5-8.5 8.5Zm0-14c-3.1 0-5.5 2.4-5.5 5.5s2.4 5.5 5.5 5.5 5.5-2.4 5.5-5.5-2.4-5.5-5.5-5.5Zm-11.7 34.2-3-.4 1.4-11.9c.4-3.3 3.6-6 7-6h12.5c3.5 0 6.6 2.6 7 6l1.3 11.9-3 .3-1.3-11.9c-.2-1.8-2-3.3-4-3.3H23.4c-2 0-3.8 1.5-4.1 3.3l-1.4 12Z"/></svg>