<svg xmlns="http://www.w3.org/2000/svg" fill="currentColor" viewBox="0 0 95.2 88"><path d="m61.61 19.96-9.94-4.89 1.48-3.01 12.88 6.34c.56.28.93.85.94 1.48 0 .63-.33 1.21-.89 1.51L45.64 32.25c-.52.28-1.14.26-1.65-.04-.5-.3-.81-.85-.81-1.44v-5.19h3.35v2.4l15.08-8.01ZM47.89 58.05c-5.86 0-11.39.59-16.26 1.59l-.69-3.1c5.1-1.05 10.86-1.66 16.95-1.66 2.84 0 5.57.14 8.2.36l-.28 3.16c-2.57-.21-5.2-.35-7.92-.35Z"/><path d="M15.97 66.49c-1.94 1.67-2.79 3.34-2.79 4.91 0 1.43.72 2.95 2.34 4.49 1.63 1.54 4.07 3.01 7.21 4.28 6.29 2.53 15.08 4.14 24.87 4.14s18.59-1.6 24.87-4.12c3.15-1.26 5.59-2.73 7.21-4.27 1.62-1.54 2.34-3.06 2.34-4.5 0-2.03-1.4-4.21-4.62-6.29l1.83-2.67c3.6 2.34 6.09 5.36 6.09 8.96 0 2.57-1.3 4.86-3.33 6.79-2.03 1.93-4.87 3.58-8.26 4.94-6.77 2.72-16.02 4.37-26.13 4.37s-19.36-1.65-26.13-4.38c-3.38-1.36-6.23-3.02-8.26-4.94-2.03-1.93-3.33-4.22-3.33-6.78 0-2.81 1.55-5.28 3.9-7.31 2.36-2.03 5.66-3.76 9.57-5.14l1.12 3.01c-3.68 1.3-6.57 2.85-8.51 4.52Z"/><path d="M28.91 70.51V.5h3.4v70.01h-3.4ZM66.97 55.42c-2.33 0-4.21 1.88-4.21 4.21s1.88 4.21 4.21 4.21 4.21-1.88 4.21-4.21-1.88-4.21-4.21-4.21Zm-7.48 4.21c0-4.13 3.34-7.48 7.48-7.48s7.48 3.34 7.48 7.48-3.34 7.48-7.48 7.48-7.48-3.34-7.48-7.48Z"/><path d="M43.37 8.91 30.95 5.74l.76-3.2 13.63 3.48c.71.18 1.21.84 1.21 1.6l.04 17.68c0 .79-.53 1.47-1.28 1.62l-13.66 2.82-.62-3.23 12.38-2.55-.03-15.04ZM27.75 72.04Zm2.39-.85c.35-.05.73-.07 1.15-.07s.8.03 1.15.07c-.35.05-.73.07-1.15.07s-.8-.03-1.15-.07Zm4.68.85Zm0-1.7Zm-7.07 0Zm-.68-1.71c1.04-.48 2.46-.84 4.22-.84s3.18.37 4.22.84c.51.24.96.51 1.31.81.17.15.35.33.51.54.13.17.37.55.41 1.07v.28c-.04.52-.29.9-.41 1.07-.15.21-.34.39-.51.54-.35.3-.8.57-1.31.81-1.04.48-2.46.84-4.22.84s-3.18-.37-4.22-.84c-.51-.24-.96-.51-1.31-.81-.17-.15-.35-.33-.51-.54-.13-.17-.37-.55-.41-1.07v-.28c.04-.52.29-.9.41-1.07.15-.21.34-.39.51-.54.35-.3.8-.57 1.31-.81Z"/></svg>