<svg xmlns="http://www.w3.org/2000/svg" fill="currentColor" viewBox="0 0 95.2 88"><path d="M33.45 6.06h36.5c3.5 0 6.4 2.9 6.4 6.4v63.2c0 3.5-2.9 6.4-6.4 6.4h-45.2c-3.5 0-6.4-2.9-6.4-6.4v-56.6l15.1-13Zm1 2.6-13.5 11.6v55.4c0 2.1 1.7 3.8 3.8 3.8h45.2c2.1 0 3.8-1.7 3.8-3.8v-63.2c0-2.1-1.7-3.8-3.8-3.8h-35.5Z"/><path d="M47.35 45.56c-4.8 0-8.5-3.7-8.5-8.5s3.7-8.5 8.5-8.5 8.5 3.7 8.5 8.5-3.7 8.5-8.5 8.5Zm0-14c-3.1 0-5.5 2.4-5.5 5.5s2.4 5.5 5.5 5.5 5.5-2.4 5.5-5.5-2.4-5.5-5.5-5.5Zm-11.7 34.2-3-.4 1.4-11.9c.4-3.3 3.6-6 7-6h12.5c3.5 0 6.6 2.6 7 6l1.3 11.9-3 .3-1.3-11.9c-.2-1.8-2-3.3-4-3.3h-12.4c-2 0-3.8 1.5-4.1 3.3l-1.4 12ZM37.65 22.46V8.06h2.7v17h-11v-2.6h8.3Z"/><path d="M33.95 5.94h36.5c3.5 0 6.4 2.9 6.4 6.4v63.2c0 3.5-2.9 6.4-6.4 6.4h-45.2c-3.5 0-6.4-2.9-6.4-6.4v-56.6l15.1-13Zm1 2.6-13.5 11.6v55.4c0 2.1 1.7 3.8 3.8 3.8h45.2c2.1 0 3.8-1.7 3.8-3.8v-63.2c0-2.1-1.7-3.8-3.8-3.8h-35.5Z"/><path d="M47.85 45.44c-4.8 0-8.5-3.7-8.5-8.5s3.7-8.5 8.5-8.5 8.5 3.7 8.5 8.5-3.7 8.5-8.5 8.5Zm0-14c-3.1 0-5.5 2.4-5.5 5.5s2.4 5.5 5.5 5.5 5.5-2.4 5.5-5.5-2.4-5.5-5.5-5.5Zm-11.7 34.2-3-.4 1.4-11.9c.4-3.3 3.6-6 7-6h12.5c3.5 0 6.6 2.6 7 6l1.3 11.9-3 .3-1.3-11.9c-.2-1.8-2-3.3-4-3.3h-12.4c-2 0-3.8 1.5-4.1 3.3l-1.4 12ZM38.15 22.34V7.94h2.7v17h-11v-2.6h8.3Z"/></svg>