<svg xmlns="http://www.w3.org/2000/svg" fill="currentColor" viewBox="0 0 95.2 88">
    <path d="M62.6 46h-28v-3h28v3ZM62.6 38h-28v-3h28v3ZM62.6 62h-28v-3h28v3ZM62.6 54h-28v-3h28v3Z" />
    <path
        d="M33.68 6h36.49c3.55 0 6.42 2.86 6.42 6.39v63.23c0 3.52-2.88 6.39-6.42 6.39H25.02c-3.55 0-6.42-2.86-6.42-6.39v-56.6L33.69 6Zm.99 2.62L21.24 20.21v55.4c0 2.07 1.7 3.76 3.78 3.76h45.15c2.09 0 3.78-1.69 3.78-3.76V12.39c0-2.07-1.7-3.76-3.78-3.76h-35.5Z" />
    <path d="M37.94 22.37V8h2.66v17h-11v-2.63h8.34Z" />
</svg>