<svg xmlns="http://www.w3.org/2000/svg" fill="currentColor" viewBox="0 0 95.2 88"><path d="M33.7 6h36.5c3.5 0 6.4 2.9 6.4 6.4v63.2c0 3.5-2.9 6.4-6.4 6.4H25c-3.5 0-6.4-2.9-6.4-6.4V19L33.7 6Zm1 2.6L21.2 20.2v55.4c0 2.1 1.7 3.8 3.8 3.8h45.2c2.1 0 3.8-1.7 3.8-3.8V12.4c0-2.1-1.7-3.8-3.8-3.8H34.7Z"/><path d="M37.9 22.4V8h2.7v17h-11v-2.6h8.3ZM32.3 68.3l-1.9-1.6c2.4-2.8 4.5-3.4 4.7-3.5h.3l14.4-.4.5-.1 15.3-8.1c.5-.2.8-.6.9-1 .1-.4.1-.7-.1-1-.1-.2-.3-.4-.6-.5-.4-.1-1-.1-1.5.2l-7.5 3.8-1.1-2.2 7.5-3.8c1.1-.6 2.3-.7 3.4-.4.9.3 1.7.9 2.1 1.8.5.9.5 2 .2 2.9-.4 1.1-1.1 1.9-2.1 2.4L51.3 65c-.1.1-.2.1-.3.1l-.8.2H50l-14.4.4c-.3.1-1.7.8-3.3 2.6Z"/><path d="m27 61-1.7-1.9 6.7-6c3.6-2.5 7.9-1.2 8.1-1.1 1.6.4 4.9.5 4.9.5h5.7c2.4 0 4.3 1.8 4.3 3.9s-1.9 3.9-4.3 3.9h-7.8v-2.5h7.8c1 0 1.8-.6 1.8-1.4s-.8-1.4-1.8-1.4H45c-.2 0-3.6-.1-5.6-.6-.1 0-3.3-1-5.9.7L27 61ZM48.1 51.2l-9.2-9c-2-1.9-2.3-3.8-2.3-5.1 0-1.6.7-3.1 1.9-4.3 2.2-2.2 6.2-3 9.6.4C50 31.3 52 31 53.2 31c1.6 0 3.2.7 4.4 1.9 1.2 1.2 1.9 2.7 1.9 4.3 0 1.3-.3 3.1-2.3 5l-9.1 9Zm-7.4-10.7 7.5 7.3 7.5-7.3c1-1 1.5-2.1 1.5-3.2 0-.9-.4-1.8-1.2-2.6-.8-.7-1.7-1.1-2.7-1.2-1.2 0-2.3.5-3.3 1.5l-1.7 1.7-1.9-1.7c-2.3-2.2-4.7-1.8-6.1-.4-.7.7-1.1 1.6-1.2 2.6 0 1.1.5 2.2 1.6 3.3Z"/></svg>