<svg xmlns="http://www.w3.org/2000/svg" fill="currentColor" viewBox="0 0 95.2 88"><path d="M35.25 23.43a5.794 5.794 0 0 0-8.22 0 5.82 5.82 0 0 0-.58 7.57l-2.38 1.75a8.776 8.776 0 0 1 .87-11.41 8.77 8.77 0 0 1 12.41 0 8.74 8.74 0 0 1 0 12.4c-1.98 1.98-4.66 2.8-7.22 2.53l.32-2.94c1.72.18 3.5-.37 4.81-1.68a5.794 5.794 0 0 0 0-8.22Z"/><path d="M16.17 12.57c10.76-10.75 28.21-10.75 38.97 0 7.36 7.39 9.68 17.89 6.93 27.24L87.1 64.83l-1.56 17.25-17.83 1.43-1.4-10.29-9.13-.27-.56-9.28-8.41-.42-4.78-4.78c-8.31 2.44-17.62.85-24.75-4.69l1.82-2.34c6.59 5.12 15.26 6.46 22.88 3.94l.87-.29 5.25 5.25 9.92.5.56 9.23 8.93.26 1.36 10 12.55-1.01 1.21-13.38L58.7 40.63l.29-.87c2.83-8.54.84-18.29-5.94-25.1-9.6-9.6-25.17-9.59-34.77 0-8.27 8.26-9.42 20.93-3.45 30.4l-2.51 1.58c-6.69-10.62-5.4-24.82 3.86-34.08Z"/><path d="M75.15 69.24 54.19 48.28l2.08-2.08 20.96 20.96-2.08 2.08ZM22.54 34.02c2.04-3.84 4.61-6.57 7.68-7.57l.86 2.89c-2.08.68-4.16 2.65-6.01 6.15-1.85 3.48-3.38 8.3-4.42 14.33-1.02 6.01-1.11 11.53-.47 15.59.32 2.04.82 3.62 1.41 4.7.6 1.08 1.18 1.47 1.65 1.56.58.11 1.51-.16 2.75-1.52 1.2-1.31 2.45-3.39 3.58-6.09l2.65 1.22c-1.21 2.89-2.62 5.31-4.14 6.97-1.48 1.62-3.34 2.79-5.36 2.4-1.63-.3-2.82-1.53-3.64-3.03-.83-1.51-1.41-3.48-1.76-5.71-.71-4.48-.59-10.37.47-16.63 1.08-6.23 2.69-11.4 4.74-15.26Z"/></svg>