<svg width="19" height="19" viewBox="0 0 19 19" fill="none" xmlns="http://www.w3.org/2000/svg">
<path d="M13.1377 18.4781H5.34092C2.39585 18.4781 0 16.0823 0 13.1372V5.34092C0 2.39585 2.39585 0 5.34092 0H13.1377C16.0828 0 18.4786 2.39585 18.4786 5.34092V13.1377C18.4786 16.0828 16.0828 18.4786 13.1377 18.4786V18.4781ZM5.34092 1.85884C3.42112 1.85884 1.85932 3.42063 1.85932 5.34043V13.1372C1.85932 15.057 3.42112 16.6188 5.34092 16.6188H13.1377C15.0575 16.6188 16.6193 15.057 16.6193 13.1372V5.34092C16.6193 3.42112 15.0575 1.85932 13.1377 1.85932H5.34092V1.85884Z" fill="black"/>
<path d="M9.2391 13.9157C6.66034 13.9157 4.5625 11.8179 4.5625 9.2391C4.5625 6.66034 6.66034 4.5625 9.2391 4.5625C11.8179 4.5625 13.9157 6.66034 13.9157 9.2391C13.9157 11.8179 11.8179 13.9157 9.2391 13.9157ZM9.2391 6.11551C7.51683 6.11551 6.116 7.51683 6.116 9.23861C6.116 10.9604 7.51732 12.3617 9.2391 12.3617C10.9609 12.3617 12.3622 10.9604 12.3622 9.23861C12.3622 7.51683 10.9609 6.11551 9.2391 6.11551Z" fill="black"/>
<path d="M14.0071 5.42026C14.6092 5.42026 15.0973 4.93219 15.0973 4.33012C15.0973 3.72806 14.6092 3.23999 14.0071 3.23999C13.4051 3.23999 12.917 3.72806 12.917 4.33012C12.917 4.93219 13.4051 5.42026 14.0071 5.42026Z" fill="black"/>
</svg>
