<svg width="17" height="17" viewBox="0 0 17 17" fill="none" xmlns="http://www.w3.org/2000/svg">
<path d="M4.09274 5.9375H0.614258V16.9629H4.09274V5.9375Z" fill="currentColor"/>
<path d="M2.8045 4.33685C3.88498 4.10265 4.57102 3.03689 4.33682 1.95641C4.10262 0.875932 3.03686 0.189887 1.95638 0.424087C0.875902 0.658288 0.189857 1.72405 0.424057 2.80453C0.658257 3.88501 1.72402 4.57105 2.8045 4.33685Z" fill="currentColor"/>
<path d="M13.0621 5.60938C10.3712 5.60938 9.60587 7.44716 9.60587 7.44716V5.93788H6.25879V16.9632H9.73727V11.188C9.73727 10.4005 9.97786 8.62841 11.7717 8.62841C13.5655 8.62841 13.5655 10.7068 13.5655 10.7068V16.9632H17.0001V10.4222C17.0001 7.31576 15.7531 5.60938 13.0621 5.60938Z" fill="currentColor"/>
</svg>
